<?xml version="1.0" encoding="UTF-8"?>
<svg version="1.1" xmlns="http://www.w3.org/2000/svg" width="400" height="400">
<path d="M0 0 C132 0 264 0 400 0 C400 132 400 264 400 400 C268 400 136 400 0 400 C0 268 0 136 0 0 Z " fill="#18150E" transform="translate(0,0)"/>
<path d="M0 0 C1.48928904 0.00560569 2.97858367 0.00987118 4.46788025 0.01286316 C8.35923948 0.0242355 12.25025476 0.05363547 16.14147949 0.0869751 C20.12356923 0.11784164 24.10571535 0.13140368 28.08789062 0.14648438 C35.88036395 0.17851387 43.67255538 0.22961603 51.46484375 0.29296875 C51.58233552 11.40374653 48.85309336 19.74911304 41.26953125 27.9765625 C31.58256903 35.97707587 23.9201018 37.13161833 11.73828125 36.87890625 C10.13833214 36.86769394 8.53836222 36.85916338 6.93838501 36.85317993 C2.75890666 36.83044089 -1.41928948 36.77165145 -5.5982666 36.70495605 C-9.87523053 36.64320735 -14.15240482 36.61609593 -18.4296875 36.5859375 C-26.79876078 36.5218894 -35.16679832 36.41969674 -43.53515625 36.29296875 C-43.56590383 34.35939307 -43.5879209 32.4256771 -43.60620117 30.49194336 C-43.61938889 29.41512802 -43.6325766 28.33831268 -43.64616394 27.22886658 C-43.51551129 23.77340488 -42.80567103 21.70124842 -40.84765625 18.85546875 C-40.29464844 18.04722656 -39.74164063 17.23898438 -39.171875 16.40625 C-37.11733875 13.75349556 -35.08775058 11.48090675 -32.53515625 9.29296875 C-31.94992188 8.79023438 -31.3646875 8.2875 -30.76171875 7.76953125 C-21.31344537 0.11381567 -11.76252118 -0.13096316 0 0 Z " fill="#A42123" transform="translate(119.53515625,133.70703125)"/>
<path d="M0 0 C1.29824707 0.00424484 2.59649414 0.00848969 3.93408203 0.01286316 C7.36022757 0.02423453 10.78598234 0.05363332 14.2119751 0.0869751 C17.7180859 0.11784395 21.22426078 0.13140415 24.73046875 0.14648438 C31.59130481 0.17851202 38.45188357 0.22961302 45.3125 0.29296875 C45.45902401 8.48750435 42.75754868 13.21788762 38.625 20.10546875 C32.21012467 26.17359406 24.24955386 28.4260095 15.60424805 28.40649414 C14.48346359 28.40641861 13.36267914 28.40634308 12.20793152 28.40626526 C11.0088063 28.40110397 9.80968109 28.39594269 8.57421875 28.390625 C7.33831497 28.38921005 6.10241119 28.3877951 4.82905579 28.38633728 C1.55591655 28.38169493 -1.71717287 28.37272186 -4.99029541 28.3616333 C-8.33532248 28.35137279 -11.68035173 28.34691506 -15.02539062 28.34179688 C-21.5794465 28.33077782 -28.13346918 28.31404711 -34.6875 28.29296875 C-34.56063659 26.7129427 -34.42474873 25.13363987 -34.28515625 23.5546875 C-34.21047119 22.67514404 -34.13578613 21.79560059 -34.05883789 20.8894043 C-33.05024794 13.83723196 -29.28087035 9.43752529 -24.078125 4.8359375 C-16.29531375 -0.18728218 -9.0148694 -0.11173386 0 0 Z " fill="#D8A220" transform="translate(109.6875,176.70703125)"/>
<path d="M0 0 C3.783938 1.61018638 6.21149964 4.00494406 9 7 C9.5775 6.401875 10.155 5.80375 10.75 5.1875 C14.85530372 1.19623249 17.05303253 -0.41952308 22.9375 -0.375 C24.46697266 -0.38660156 24.46697266 -0.38660156 26.02734375 -0.3984375 C29.43790819 0.05869466 31.28014982 0.90926299 34 3 C36.0326567 6.18732536 36.23686954 8.68174164 36.1953125 12.421875 C36.18886719 13.44667969 36.18242187 14.47148437 36.17578125 15.52734375 C36.15902344 16.59082031 36.14226562 17.65429688 36.125 18.75 C36.11597656 19.82894531 36.10695313 20.90789062 36.09765625 22.01953125 C36.07411305 24.67991278 36.04122799 27.33984336 36 30 C34.02 30 32.04 30 30 30 C29.505 28.515 29.505 28.515 29 27 C28.38125 27.71736328 28.38125 27.71736328 27.75 28.44921875 C24.65041289 31.19595107 21.00989783 31.02383297 17 31 C13.28617611 30.52203039 9.65120924 29.82578751 6 29 C6 29.66 6 30.32 6 31 C3.60347472 31.08139142 1.20974564 31.14067009 -1.1875 31.1875 C-1.86103516 31.21263672 -2.53457031 31.23777344 -3.22851562 31.26367188 C-7.72098978 31.3294154 -10.42473603 30.73173527 -14 28 C-18.75093513 22.72118319 -19.34907386 18.64270201 -19.28515625 11.73046875 C-18.79835387 7.06916926 -16.57219154 4.4255446 -13.19921875 1.3671875 C-9.15950734 -1.14417839 -4.59366065 -0.50584954 0 0 Z " fill="#1C1910" transform="translate(281,205)"/>
<path d="M0 0 C3.3 0 6.6 0 10 0 C10.31751221 0.8971875 10.63502441 1.794375 10.9621582 2.71875 C12.15232765 6.08115729 13.3434794 9.44321593 14.53491211 12.80517578 C15.04819659 14.25397563 15.56122274 15.70286703 16.07397461 17.15185547 C16.815546 19.24731815 17.55802736 21.34245621 18.30078125 23.4375 C18.53918732 24.11127686 18.77759338 24.78505371 19.02322388 25.47924805 C20.25306864 28.94352678 21.52152688 32.38706902 22.85546875 35.8125 C24 39 24 39 24 42 C21.36 42 18.72 42 16 42 C14.515 37.545 14.515 37.545 13 33 C7.72 33 2.44 33 -3 33 C-3.99 35.97 -4.98 38.94 -6 42 C-8.64 42 -11.28 42 -14 42 C-11.83337338 33.92659243 -9.39530205 26.1729648 -6.3046875 18.3984375 C-3.9798474 12.34271627 -2.0047087 6.16767826 0 0 Z " fill="#C5C0A3" transform="translate(184,193)"/>
<path d="M0 0 C1.29824707 0.00424484 2.59649414 0.00848969 3.93408203 0.01286316 C7.36022757 0.02423453 10.78598234 0.05363332 14.2119751 0.0869751 C17.7180859 0.11784395 21.22426078 0.13140415 24.73046875 0.14648438 C31.59130481 0.17851202 38.45188357 0.22961302 45.3125 0.29296875 C45.40629816 5.16546077 45.24385769 8.33521587 42.9375 12.66796875 C42.27621094 13.94800781 42.27621094 13.94800781 41.6015625 15.25390625 C40.3125 17.29296875 40.3125 17.29296875 38.3125 18.29296875 C38.456875 17.73609375 38.60125 17.17921875 38.75 16.60546875 C39.34019128 14.1791268 39.835929 11.7439053 40.3125 9.29296875 C39.6525 9.62296875 38.9925 9.95296875 38.3125 10.29296875 C37.3225 9.79796875 37.3225 9.79796875 36.3125 9.29296875 C35.9825 9.95296875 35.6525 10.61296875 35.3125 11.29296875 C34.8175 10.79796875 34.8175 10.79796875 34.3125 10.29296875 C32.74801617 10.17033487 31.17817228 10.11517353 29.60913086 10.08764648 C28.10768776 10.05772865 28.10768776 10.05772865 26.57591248 10.02720642 C24.94312096 10.00213768 24.94312096 10.00213768 23.27734375 9.9765625 C22.16895645 9.9557814 21.06056915 9.93500031 19.91859436 9.91358948 C16.36246192 9.84797252 12.80625297 9.78915279 9.25 9.73046875 C6.84569507 9.68729507 4.44139801 9.64368117 2.03710938 9.59960938 C-3.87101185 9.49227883 -9.77920991 9.39053544 -15.6875 9.29296875 C-15.6875 9.95296875 -15.6875 10.61296875 -15.6875 11.29296875 C-17.0075 11.29296875 -18.3275 11.29296875 -19.6875 11.29296875 C-20.0175 11.95296875 -20.3475 12.61296875 -20.6875 13.29296875 C-21.47125 13.10734375 -22.255 12.92171875 -23.0625 12.73046875 C-25.65839775 12.03334609 -25.65839775 12.03334609 -27.6875 13.29296875 C-28.77920637 15.03483633 -28.77920637 15.03483633 -29.75 17.10546875 C-30.09160156 17.79253906 -30.43320313 18.47960937 -30.78515625 19.1875 C-31.65285994 21.21214194 -32.21919072 23.14453956 -32.6875 25.29296875 C-29.74440137 26.27400163 -27.7378097 26.44518562 -24.6652832 26.49829102 C-23.13403557 26.52820885 -23.13403557 26.52820885 -21.57185364 26.55873108 C-20.47177475 26.57544357 -19.37169586 26.59215607 -18.23828125 26.609375 C-16.54665108 26.64054665 -16.54665108 26.64054665 -14.82084656 26.67234802 C-11.2139604 26.73779722 -7.60700071 26.79670719 -4 26.85546875 C-1.55663298 26.89865836 0.88672656 26.94227279 3.33007812 26.98632812 C9.32414074 27.09347391 15.31827671 27.19524904 21.3125 27.29296875 C21.3125 27.62296875 21.3125 27.95296875 21.3125 28.29296875 C2.8325 28.29296875 -15.6475 28.29296875 -34.6875 28.29296875 C-33.56420316 17.06000034 -32.176181 11.99829375 -24.078125 4.8359375 C-16.29531375 -0.18728218 -9.0148694 -0.11173386 0 0 Z " fill="#D8A320" transform="translate(109.6875,176.70703125)"/>
<path d="M0 0 C0.33 0.99 0.66 1.98 1 3 C2.5778125 2.9690625 2.5778125 2.9690625 4.1875 2.9375 C10.70648464 3.0443686 10.70648464 3.0443686 13 4 C14.625 7.3125 14.625 7.3125 16 11 C17.73241478 13.9923528 18.32450097 14.81148864 21.6875 15.75 C22.450625 15.8325 23.21375 15.915 24 16 C22.81458694 19.37386793 21.82746274 21.75917805 19 24 C16.9152832 24.34057617 16.9152832 24.34057617 14.55078125 24.29296875 C13.70322266 24.28330078 12.85566406 24.27363281 11.98242188 24.26367188 C11.10134766 24.23853516 10.22027344 24.21339844 9.3125 24.1875 C8.41982422 24.17396484 7.52714844 24.16042969 6.60742188 24.14648438 C4.40433834 24.11114079 2.20247418 24.06180493 0 24 C0 23.01 0 22.02 0 21 C-3.39404135 20.33774803 -6.21628804 20.0146636 -9.6875 20.25 C-13 20 -13 20 -15.0625 18 C-16.34021246 13.91132012 -15.67403037 10.82635513 -14 7 C-9.99053542 0.88029091 -7.20248799 -0.13337941 0 0 Z " fill="#D7A012" transform="translate(101,213)"/>
<path d="M0 0 C3.74030185 1.60298651 4.73158465 2.59737698 7 6 C7.22705078 8.54370117 7.22705078 8.54370117 7.1953125 11.54296875 C7.18886719 12.61611328 7.18242187 13.68925781 7.17578125 14.79492188 C7.15902344 15.91447266 7.14226562 17.03402344 7.125 18.1875 C7.11597656 19.31865234 7.10695312 20.44980469 7.09765625 21.61523438 C7.07406862 24.41036828 7.041153 27.20507845 7 30 C4.69 30 2.38 30 0 30 C-0.33 29.34 -0.66 28.68 -1 28 C-1.515625 28.495 -2.03125 28.99 -2.5625 29.5 C-5.97904264 31.60248778 -8.04648052 31.54531303 -12 31 C-15.4375 29.0625 -15.4375 29.0625 -18 26 C-18.72967046 22.86965802 -18.85570277 20.10608993 -18 17 C-15.78153634 13.98310377 -14.41930115 13.1073573 -10.765625 12.171875 C-9.60546875 12.03265625 -8.4453125 11.8934375 -7.25 11.75 C-6.07953125 11.60046875 -4.9090625 11.4509375 -3.703125 11.296875 C-2.36507812 11.14992187 -2.36507812 11.14992187 -1 11 C-1.33 9.68 -1.66 8.36 -2 7 C-4.31 7 -6.62 7 -9 7 C-9.33 7.66 -9.66 8.32 -10 9 C-12.31 9 -14.62 9 -17 9 C-16.73309994 5.79719931 -16.16670984 4.2056088 -14.125 1.6875 C-9.47760552 -0.82209302 -5.17392828 -0.65354884 0 0 Z " fill="#C9C3A9" transform="translate(246,153)"/>
<path d="M0 0 C1.01964844 -0.00773438 2.03929687 -0.01546875 3.08984375 -0.0234375 C6.50040819 0.43369466 8.34264982 1.28426299 11.0625 3.375 C13.0951567 6.56232536 13.29936954 9.05674164 13.2578125 12.796875 C13.25136719 13.82167969 13.24492187 14.84648437 13.23828125 15.90234375 C13.22152344 16.96582031 13.20476562 18.02929688 13.1875 19.125 C13.17847656 20.20394531 13.16945313 21.28289062 13.16015625 22.39453125 C13.13661305 25.05491278 13.10372799 27.71484336 13.0625 30.375 C11.0825 30.375 9.1025 30.375 7.0625 30.375 C6.7325 29.385 6.4025 28.395 6.0625 27.375 C5.65773438 27.85195312 5.25296875 28.32890625 4.8359375 28.8203125 C1.75495922 31.52125821 -1.95912448 31.50761252 -5.9375 31.375 C-8.98897152 30.03998121 -10.44936717 29.35126566 -11.9375 26.375 C-12.35076459 23.31684201 -12.41097905 20.42812353 -11.9375 17.375 C-8.6493393 13.48899191 -4.83262294 12.4055522 0.0625 11.375 C3.5 11.25 3.5 11.25 6.0625 11.375 C5.4025 10.055 4.7425 8.735 4.0625 7.375 C1.7525 7.375 -0.5575 7.375 -2.9375 7.375 C-3.2675 8.035 -3.5975 8.695 -3.9375 9.375 C-6.2475 9.375 -8.5575 9.375 -10.9375 9.375 C-10.44969512 3.88719512 -10.44969512 3.88719512 -8.26171875 1.69921875 C-5.33733246 0.03305581 -3.35177866 -0.02536024 0 0 Z " fill="#C4BEA3" transform="translate(303.9375,204.625)"/>
<path d="M0 0 C3.66195958 2.07280731 5.66024277 3.49036416 8 7 C8.26402861 10.35316337 8.08751723 13.63058658 8 17 C1.73 17 -4.54 17 -11 17 C-10.01 18.98 -9.02 20.96 -8 23 C-4.50260082 24.15483439 -4.50260082 24.15483439 -1 24 C-0.34 23.34 0.32 22.68 1 22 C4.625 22.375 4.625 22.375 8 23 C6.0770907 26.5573822 4.44098318 28.85321905 1 31 C-3.2225057 31.91240073 -7.29691187 31.93405199 -11.13671875 29.828125 C-15.46250718 26.30945432 -17.58486646 22.96274255 -18.37109375 17.3515625 C-18.50875748 11.69925156 -18.24360763 7.76781116 -14.484375 3.375 C-9.82658271 -0.93958654 -6.06469585 -1.6244721 0 0 Z " fill="#C8C4AB" transform="translate(294,153)"/>
<path d="M0 0 C7.92 0 15.84 0 24 0 C24 1.98 24 3.96 24 6 C18.39 6 12.78 6 7 6 C7 9.3 7 12.6 7 16 C12.28 16 17.56 16 23 16 C23 18.31 23 20.62 23 23 C17.72 23 12.44 23 7 23 C7 28.61 7 34.22 7 40 C4.69 40 2.38 40 0 40 C0 26.8 0 13.6 0 0 Z " fill="#D4CDB2" transform="translate(187,143)"/>
<path d="M0 0 C1.24132187 0.00222061 2.48264374 0.00444122 3.76158142 0.00672913 C4.44447739 0.0065831 5.12737335 0.00643707 5.83096313 0.00628662 C8.09815092 0.00698575 10.36525752 0.01477811 12.63243103 0.02259827 C14.20041865 0.02446245 15.76840685 0.02588635 17.33639526 0.02688599 C21.47103981 0.03071117 25.60564944 0.04054146 29.74028015 0.05158997 C33.95627876 0.06180407 38.172283 0.0663836 42.38829041 0.07142639 C50.66630125 0.08216373 58.94428368 0.09924015 67.22227478 0.12025452 C67.22227478 0.45025452 67.22227478 0.78025452 67.22227478 1.12025452 C66.41984848 1.12390015 65.61742218 1.12754578 64.79067993 1.13130188 C57.18559427 1.169351 49.58098936 1.22639298 41.97621441 1.30415726 C38.06757752 1.34347245 34.15916053 1.37573824 30.25035095 1.39125061 C26.46992075 1.40652362 22.69009576 1.44115355 18.9099369 1.48856354 C17.47609058 1.50326874 16.04215779 1.51128921 14.60823631 1.51213837 C2.80331875 1.52614482 -6.88689155 2.91333113 -15.77772522 11.12025452 C-16.43772522 11.12025452 -17.09772522 11.12025452 -17.77772522 11.12025452 C-18.17797913 11.97103577 -18.17797913 11.97103577 -18.58631897 12.83900452 C-19.77772522 15.12025452 -19.77772522 15.12025452 -21.25038147 17.27650452 C-21.77502991 18.04994202 -22.29967834 18.82337952 -22.84022522 19.62025452 C-23.36745178 20.37306702 -23.89467834 21.12587952 -24.43788147 21.90150452 C-25.83171196 25.2499486 -26.10332864 27.72537625 -26.36146545 31.32142639 C-26.44218796 32.4061322 -26.52291046 33.49083801 -26.6060791 34.6084137 C-26.66272232 35.43732117 -26.71936554 36.26622864 -26.77772522 37.12025452 C-17.5624574 37.12858763 -8.34799165 37.1044931 0.86705589 37.03997612 C5.14690444 37.01100978 9.42620894 36.99285536 13.7061615 37.00013733 C17.84333808 37.00676645 21.97944301 36.9840448 26.11639786 36.94169998 C27.68784897 36.93063195 29.25940962 36.92981129 30.83086777 36.93983078 C41.96908385 37.00169475 49.00699775 35.16195205 57.80821228 28.02259827 C64.71745868 20.43449578 67.28373166 11.20959311 68.22227478 1.12025452 C70.22227478 3.12025452 70.22227478 3.12025452 70.30430603 5.47572327 C69.28949258 16.13861817 65.73857856 23.43638983 58.22227478 31.12025452 C50.45259701 37.25950767 44.75450261 40.1648805 34.87486267 40.35731506 C33.61327835 40.38371567 32.35169403 40.41011627 31.05187988 40.43731689 C29.68290396 40.4609462 28.31392071 40.4841547 26.94493103 40.50697327 C25.53155339 40.53265766 24.11817756 40.55844149 22.70480347 40.58432007 C19.74688814 40.63717315 16.78893597 40.68610971 13.83091736 40.73280334 C10.05026481 40.79317994 6.27002356 40.86743692 2.48969364 40.94517803 C-0.42793474 41.00292048 -3.34566513 41.05114665 -6.26350594 41.09676552 C-7.65694345 41.12008221 -9.05032843 41.14680892 -10.44363213 41.17708397 C-12.3958748 41.21849372 -14.348412 41.24521914 -16.30091858 41.27137756 C-17.40946701 41.29056747 -18.51801544 41.30975739 -19.66015625 41.32952881 C-23.02702452 41.1035197 -25.67044957 40.42451641 -28.77772522 39.12025452 C-30.62881911 35.41806673 -29.44959227 31.0914687 -28.77772522 27.12025452 C-27.52772522 23.55775452 -27.52772522 23.55775452 -25.77772522 20.12025452 C-25.43870178 19.38806702 -25.09967834 18.65587952 -24.75038147 17.90150452 C-22.12283847 12.59333685 -19.32430799 9.53772319 -14.35194397 6.31166077 C-13.83245178 5.9184967 -13.31295959 5.52533264 -12.77772522 5.12025452 C-12.77772522 4.46025452 -12.77772522 3.80025452 -12.77772522 3.12025452 C-11.82059631 2.92109436 -11.82059631 2.92109436 -10.84413147 2.71791077 C-10.01784241 2.5413092 -9.19155334 2.36470764 -8.34022522 2.18275452 C-7.10465881 1.92171936 -7.10465881 1.92171936 -5.84413147 1.65541077 C-3.03450583 0.92777615 -3.12945298 0.13548167 0 0 Z " fill="#331209" transform="translate(102.77772521972656,132.87974548339844)"/>
<path d="M0 0 C3.74030185 1.60298651 4.73158465 2.59737698 7 6 C7 7.32 7 8.64 7 10 C3.625 10.1875 3.625 10.1875 0 10 C-0.66 9.01 -1.32 8.02 -2 7 C-5.5 6.5 -5.5 6.5 -9 7 C-11.14553377 10.21830065 -11.29583868 11.26786507 -11.3125 15 C-11.32925781 15.86625 -11.34601563 16.7325 -11.36328125 17.625 C-11.18212204 20.04583183 -11.18212204 20.04583183 -9.671875 21.79296875 C-7.11786964 23.63686515 -5.05322852 23.32481154 -2 23 C-1.34 22.34 -0.68 21.68 0 21 C3.625 20.875 3.625 20.875 7 21 C6.70179167 24.57849992 6.25754642 25.76226484 3.5625 28.25 C-0.63798216 31.11862196 -3.96754423 31.53330456 -9 31 C-13.14082455 29.21191667 -15.43189313 26.6687241 -18 23 C-19.54278505 18.37164486 -19.50478774 13.8335155 -19 9 C-14.61585233 0.23170465 -9.23318051 -1.02743107 0 0 Z " fill="#C5BFA5" transform="translate(281,205)"/>
<path d="M0 0 C0 1.98 0 3.96 0 6 C-1.65 6.33 -3.3 6.66 -5 7 C-5.33 8.65 -5.66 10.3 -6 12 C-4.02 12 -2.04 12 0 12 C0 13.98 0 15.96 0 18 C-1.98 18 -3.96 18 -6 18 C-6 25.92 -6 33.84 -6 42 C-8.31 42 -10.62 42 -13 42 C-13 34.08 -13 26.16 -13 18 C-14.65 18 -16.3 18 -18 18 C-18 16.02 -18 14.04 -18 12 C-16.35 12 -14.7 12 -13 12 C-13.103125 10.948125 -13.20625 9.89625 -13.3125 8.8125 C-13 5 -13 5 -11 2.0625 C-6.96968211 -0.70834355 -4.80160858 -0.40691598 0 0 Z " fill="#CEC8AF" transform="translate(227,193)"/>
<path d="M0 0 C0 2.64 0 5.28 0 8 C-1.11375 8.12375 -2.2275 8.2475 -3.375 8.375 C-7.03103677 8.6465813 -7.03103677 8.6465813 -9 11 C-9.37004294 13.22658154 -9.37004294 13.22658154 -9.4140625 15.7890625 C-9.45273437 16.73007813 -9.49140625 17.67109375 -9.53125 18.640625 C-9.5621875 19.62546875 -9.593125 20.6103125 -9.625 21.625 C-9.68300781 23.11386719 -9.68300781 23.11386719 -9.7421875 24.6328125 C-9.8366314 27.08835385 -9.92219875 29.5438841 -10 32 C-12.31 32 -14.62 32 -17 32 C-17 21.77 -17 11.54 -17 1 C-14.69 1 -12.38 1 -10 1 C-9.67 1.66 -9.34 2.32 -9 3 C-8.2575 2.505 -7.515 2.01 -6.75 1.5 C-4 0 -4 0 0 0 Z " fill="#BFBAA2" transform="translate(275,152)"/>
<path d="M0 0 C0 2.64 0 5.28 0 8 C-1.11375 8.103125 -2.2275 8.20625 -3.375 8.3125 C-4.57125 8.539375 -5.7675 8.76625 -7 9 C-9.05127844 12.07691766 -9.27260872 12.93644999 -9.4140625 16.44921875 C-9.45273438 17.29677734 -9.49140625 18.14433594 -9.53125 19.01757812 C-9.57765625 20.33918945 -9.57765625 20.33918945 -9.625 21.6875 C-9.66367188 22.58017578 -9.70234375 23.47285156 -9.7421875 24.39257812 C-9.83640218 26.5948462 -9.92201588 28.79710722 -10 31 C-12.31 31 -14.62 31 -17 31 C-17 21.1 -17 11.2 -17 1 C-14.69 1 -12.38 1 -10 1 C-9.67 1.66 -9.34 2.32 -9 3 C-8.62875 2.505 -8.2575 2.01 -7.875 1.5 C-5.25305607 -0.59755514 -3.26157528 -0.21743835 0 0 Z " fill="#D2CAB0" transform="translate(248,204)"/>
<path d="M0 0 C1.98 0 3.96 0 6 0 C6 13.53 6 27.06 6 41 C3.69 41 1.38 41 -1 41 C-1.02464705 35.32169922 -1.04283462 29.64342931 -1.05493164 23.96508789 C-1.05997256 22.03181415 -1.06680519 20.09854424 -1.07543945 18.1652832 C-1.08751565 15.39273128 -1.09323057 12.62022959 -1.09765625 9.84765625 C-1.10281754 8.97786636 -1.10797882 8.10807648 -1.11329651 7.21192932 C-1.11349185 5.14094186 -1.06208168 3.07005676 -1 1 C-0.67 0.67 -0.34 0.34 0 0 Z " fill="#C7C2AB" transform="translate(217,142)"/>
<path d="M0 0 C0.66 0 1.32 0 2 0 C3.32 3.96 4.64 7.92 6 12 C6.66 12 7.32 12 8 12 C9.32 12 10.64 12 12 12 C12.33 11.34 12.66 10.68 13 10 C13.98341615 12.72770166 14.96185053 15.45702105 15.9375 18.1875 C16.21529297 18.95642578 16.49308594 19.72535156 16.77929688 20.51757812 C18.13500232 24.32335366 19.36566268 27.9932364 20 32 C17.36 32 14.72 32 12 32 C11.79503906 31.37351563 11.59007812 30.74703125 11.37890625 30.1015625 C11.10949219 29.28429687 10.84007812 28.46703125 10.5625 27.625 C10.29566406 26.81289062 10.02882812 26.00078125 9.75390625 25.1640625 C9.04820271 22.98968201 9.04820271 22.98968201 8 21 C7.01 21 6.02 21 5 21 C5 19 5 19 6.5 17.375 C6.995 16.92125 7.49 16.4675 8 16 C7 17 7 17 4.27734375 17.09765625 C3.17519531 17.08605469 2.07304687 17.07445312 0.9375 17.0625 C-0.16722656 17.05347656 -1.27195313 17.04445312 -2.41015625 17.03515625 C-3.69212891 17.01775391 -3.69212891 17.01775391 -5 17 C-4.80664062 16.35933594 -4.61328125 15.71867188 -4.4140625 15.05859375 C-2.9059252 10.04889015 -1.42282214 5.03460143 0 0 Z " fill="#B7B095" transform="translate(188,203)"/>
<path d="M0 0 C0.99 0.33 1.98 0.66 3 1 C3 1.99 3 2.98 3 4 C8.94 4 14.88 4 21 4 C20.34 5.32 19.68 6.64 19 8 C19.00773437 8.80050781 19.01546875 9.60101563 19.0234375 10.42578125 C18.99467243 13.58514465 18.08290583 15.40230996 16.625 18.1875 C16.18414062 19.04730469 15.74328125 19.90710938 15.2890625 20.79296875 C14 23 14 23 12 25 C9.375 25.125 9.375 25.125 7 25 C5.17033115 20.73077268 3.79011529 17.36046228 3.9375 12.6875 C4.35114217 8.91059877 4.35114217 8.91059877 2 6 C2 4.68 2 3.36 2 2 C1.34 2 0.68 2 0 2 C0 1.34 0 0.68 0 0 Z " fill="#2B5C26" transform="translate(98,233)"/>
<path d="M0 0 C2.64 0 5.28 0 8 0 C8 9.9 8 19.8 8 30 C5.36 30 2.72 30 0 30 C0 20.1 0 10.2 0 0 Z " fill="#B8B19B" transform="translate(250,205)"/>
<path d="M0 0 C0.66 0 1.32 0 2 0 C2 7.92 2 15.84 2 24 C-0.31 24 -2.62 24 -5 24 C-5.33 23.34 -5.66 22.68 -6 22 C-6.515625 22.495 -7.03125 22.99 -7.5625 23.5 C-10.80680017 25.49649241 -13.26217334 25.21564385 -17 25 C-15.68 24.34 -14.36 23.68 -13 23 C-13.33 22.34 -13.66 21.68 -14 21 C-12.35 20.67 -10.7 20.34 -9 20 C-11.31 19.34 -13.62 18.68 -16 18 C-16.1875 15.625 -16.1875 15.625 -16 13 C-11.95807022 10.30538014 -9.7948504 10.76799111 -5 11 C-4.67 11.33 -4.34 11.66 -4 12 C-1.95780294 10.30820672 -1.08206694 9.36272334 -0.48828125 6.73828125 C-0.43027344 5.93777344 -0.37226563 5.13726562 -0.3125 4.3125 C-0.24675781 3.50425781 -0.18101562 2.69601563 -0.11328125 1.86328125 C-0.07589844 1.24839844 -0.03851563 0.63351563 0 0 Z " fill="#BEB9A2" transform="translate(251,159)"/>
<path d="M0 0 C1.29824707 0.00424484 2.59649414 0.00848969 3.93408203 0.01286316 C7.36022757 0.02423453 10.78598234 0.05363332 14.2119751 0.0869751 C17.7180859 0.11784395 21.22426078 0.13140415 24.73046875 0.14648438 C31.59130481 0.17851202 38.45188357 0.22961302 45.3125 0.29296875 C45.3125 0.62296875 45.3125 0.95296875 45.3125 1.29296875 C44.62060577 1.29661438 43.92871155 1.30026001 43.21585083 1.30401611 C36.65529551 1.34208029 30.09520193 1.39913876 23.53499031 1.47687149 C20.16328272 1.5161711 16.79182942 1.5484441 13.41992188 1.56396484 C9.53213103 1.58549987 5.6453098 1.63220817 1.7578125 1.68359375 C0.56261993 1.68482239 -0.63257263 1.68605103 -1.86398315 1.68731689 C-8.78325241 1.80695492 -15.8414733 2.18615157 -21.6875 6.29296875 C-22.84855069 8.81712813 -22.84855069 8.81712813 -23.6875 11.29296875 C-25.00011162 11.99956125 -26.33430185 12.66760727 -27.6875 13.29296875 C-28.97936063 15.08129061 -28.97936063 15.08129061 -29.875 17.16796875 C-30.19855469 17.84601563 -30.52210937 18.5240625 -30.85546875 19.22265625 C-31.66262467 21.23107239 -32.21900318 23.1823669 -32.6875 25.29296875 C-29.74440137 26.27400163 -27.7378097 26.44518562 -24.6652832 26.49829102 C-23.13403557 26.52820885 -23.13403557 26.52820885 -21.57185364 26.55873108 C-20.47177475 26.57544357 -19.37169586 26.59215607 -18.23828125 26.609375 C-16.54665108 26.64054665 -16.54665108 26.64054665 -14.82084656 26.67234802 C-11.2139604 26.73779722 -7.60700071 26.79670719 -4 26.85546875 C-1.55663298 26.89865836 0.88672656 26.94227279 3.33007812 26.98632812 C9.32414074 27.09347391 15.31827671 27.19524904 21.3125 27.29296875 C21.3125 27.62296875 21.3125 27.95296875 21.3125 28.29296875 C2.8325 28.29296875 -15.6475 28.29296875 -34.6875 28.29296875 C-33.56420316 17.06000034 -32.176181 11.99829375 -24.078125 4.8359375 C-16.29531375 -0.18728218 -9.0148694 -0.11173386 0 0 Z " fill="#957C36" transform="translate(109.6875,176.70703125)"/>
<path d="M0 0 C5.27405053 0.41365102 8.17729898 1.28973136 12 5 C13.82089479 8.64178957 13.05121113 13.00553148 13 17 C6.73 17 0.46 17 -6 17 C-6 15.68 -6 14.36 -6 13 C-1.9472484 12.01751476 1.83861737 11.91840426 6 12 C5.43923199 9.50995496 5.43923199 9.50995496 4 7 C0.97017694 5.62810173 0.97017694 5.62810173 -2 5 C-1 3 -1 3 2 2 C1.34 1.34 0.68 0.68 0 0 Z " fill="#C3BFA6" transform="translate(289,153)"/>
<path d="M0 0 C-0.25 1.875 -0.25 1.875 -1 4 C-3.0625 5.25 -3.0625 5.25 -5 6 C-4.236875 5.938125 -3.47375 5.87625 -2.6875 5.8125 C0 6 0 6 1.8125 7.25 C3 9 3 9 3 13 C-0.96 13 -4.92 13 -9 13 C-9.33 12.34 -9.66 11.68 -10 11 C-10.99 11.33 -11.98 11.66 -13 12 C-13.80563638 14.10584438 -13.80563638 14.10584438 -14.1875 16.5625 C-14.42533203 17.80193359 -14.42533203 17.80193359 -14.66796875 19.06640625 C-14.77753906 19.70449219 -14.88710938 20.34257812 -15 21 C-15.33 21 -15.66 21 -16 21 C-16.52416671 14.55857357 -16.82874979 9.47941713 -12.4921875 4.37109375 C-8.70626641 0.8924071 -5.0923805 -0.44932769 0 0 Z " fill="#CAC6B0" transform="translate(292,152)"/>
<path d="M0 0 C0.33 0 0.66 0 1 0 C1 1.65 1 3.3 1 5 C1.33 4.34 1.66 3.68 2 3 C2.66 3 3.32 3 4 3 C4 5.64 4 8.28 4 11 C2.824375 11.433125 2.824375 11.433125 1.625 11.875 C-1.09671632 12.84912254 -1.09671632 12.84912254 -3 15 C-5.8203125 15.1953125 -5.8203125 15.1953125 -9.125 15.125 C-10.22070312 15.10695312 -11.31640625 15.08890625 -12.4453125 15.0703125 C-13.70988281 15.03550781 -13.70988281 15.03550781 -15 15 C-14.979375 13.865625 -14.95875 12.73125 -14.9375 11.5625 C-14.58422523 8.18424326 -14.58422523 8.18424326 -16 7 C-16 9.97 -16 12.94 -16 16 C-16.33 16 -16.66 16 -17 16 C-17 12.7 -17 9.4 -17 6 C-11.39 6 -5.78 6 0 6 C0 4.02 0 2.04 0 0 Z " fill="#24211A" transform="translate(211,143)"/>
<path d="M0 0 C1.24132187 0.00222061 2.48264374 0.00444122 3.76158142 0.00672913 C4.44447739 0.0065831 5.12737335 0.00643707 5.83096313 0.00628662 C8.09815092 0.00698575 10.36525752 0.01477811 12.63243103 0.02259827 C14.20041865 0.02446245 15.76840685 0.02588635 17.33639526 0.02688599 C21.47103981 0.03071117 25.60564944 0.04054146 29.74028015 0.05158997 C33.95627876 0.06180407 38.172283 0.0663836 42.38829041 0.07142639 C50.66630125 0.08216373 58.94428368 0.09924015 67.22227478 0.12025452 C67.22227478 0.45025452 67.22227478 0.78025452 67.22227478 1.12025452 C66.41984848 1.12390015 65.61742218 1.12754578 64.79067993 1.13130188 C57.18559427 1.169351 49.58098936 1.22639298 41.97621441 1.30415726 C38.06757752 1.34347245 34.15916053 1.37573824 30.25035095 1.39125061 C26.46992075 1.40652362 22.69009576 1.44115355 18.9099369 1.48856354 C17.47609058 1.50326874 16.04215779 1.51128921 14.60823631 1.51213837 C2.80331875 1.52614482 -6.88689155 2.91333113 -15.77772522 11.12025452 C-16.43772522 11.12025452 -17.09772522 11.12025452 -17.77772522 11.12025452 C-18.04585022 11.68615295 -18.31397522 12.25205139 -18.59022522 12.83509827 C-19.8395201 15.239169 -21.28739472 17.42117799 -22.77772522 19.68275452 C-26.0146152 24.98020129 -27.10313827 30.00244869 -27.77772522 36.12025452 C-28.10772522 36.12025452 -28.43772522 36.12025452 -28.77772522 36.12025452 C-29.15427812 29.96989047 -28.67181578 25.70884318 -25.77772522 20.12025452 C-25.43741272 19.38677795 -25.09710022 18.65330139 -24.74647522 17.89759827 C-22.12346127 12.58953963 -19.32190038 9.53616114 -14.35194397 6.31166077 C-13.83245178 5.9184967 -13.31295959 5.52533264 -12.77772522 5.12025452 C-12.77772522 4.46025452 -12.77772522 3.80025452 -12.77772522 3.12025452 C-11.82059631 2.92109436 -11.82059631 2.92109436 -10.84413147 2.71791077 C-10.01784241 2.5413092 -9.19155334 2.36470764 -8.34022522 2.18275452 C-7.10465881 1.92171936 -7.10465881 1.92171936 -5.84413147 1.65541077 C-3.03450583 0.92777615 -3.12945298 0.13548167 0 0 Z " fill="#2C0803" transform="translate(102.77772521972656,132.87974548339844)"/>
<path d="M0 0 C0.66 0.33 1.32 0.66 2 1 C1.01 2.485 1.01 2.485 0 4 C-0.99 4 -1.98 4 -3 4 C-3 4.66 -3 5.32 -3 6 C-3.99 6.66 -4.98 7.32 -6 8 C-6.72382467 10.05925139 -6.72382467 10.05925139 -7 12 C-7.99 12 -8.98 12 -10 12 C-10.4021875 13.0828125 -10.4021875 13.0828125 -10.8125 14.1875 C-12 17 -12 17 -13.625 19.3125 C-15.60730107 22.68386069 -15.60730107 22.68386069 -15 30 C17.67 30.495 17.67 30.495 51 31 C51 31.33 51 31.66 51 32 C28.56 32 6.12 32 -17 32 C-17 18.46851385 -17 18.46851385 -14.3125 14.5625 C-13.76207031 13.75554687 -13.21164063 12.94859375 -12.64453125 12.1171875 C-8.97835832 7.39731641 -4.60778936 3.75052622 0 0 Z " fill="#9C3034" transform="translate(93,138)"/>
<path d="M0 0 C2.31 0 4.62 0 7 0 C7.33 1.65 7.66 3.3 8 5 C7.09636719 5.18175781 6.19273437 5.36351562 5.26171875 5.55078125 C3.49248047 5.92783203 3.49248047 5.92783203 1.6875 6.3125 C0.51574219 6.55613281 -0.65601563 6.79976562 -1.86328125 7.05078125 C-5.59476482 8.16775972 -5.59476482 8.16775972 -8 11 C-8.39883771 13.21333816 -8.39883771 13.21333816 -8.25 15.5625 C-8.23453125 16.34753906 -8.2190625 17.13257813 -8.203125 17.94140625 C-8.11758859 20.06250961 -8.11758859 20.06250961 -7 22 C-7.99 22 -8.98 22 -10 22 C-10.33 19.69 -10.66 17.38 -11 15 C-11.33 15 -11.66 15 -12 15 C-12 10.38 -12 5.76 -12 1 C-11.67 1 -11.34 1 -11 1 C-10.67 2.65 -10.34 4.3 -10 6 C-10 5.01 -10 4.02 -10 3 C-9.34 2.34 -8.68 1.68 -8 1 C-8 1.66 -8 2.32 -8 3 C-5.69 3 -3.38 3 -1 3 C-0.67 2.01 -0.34 1.02 0 0 Z " fill="#231F14" transform="translate(237,159)"/>
<path d="M0 0 C0.99 0 1.98 0 3 0 C2 2 2 2 0 5 C6.27 5 12.54 5 19 5 C19 5.33 19 5.66 19 6 C13.72 6 8.44 6 3 6 C2.01 8.97 1.02 11.94 0 15 C-2.64 15 -5.28 15 -8 15 C-6.68 10.38 -5.36 5.76 -4 1 C-2.68 1.33 -1.36 1.66 0 2 C0 1.34 0 0.68 0 0 Z " fill="#B9B49C" transform="translate(178,220)"/>
<path d="M0 0 C0 2.64 0 5.28 0 8 C-1.670625 8.2165625 -1.670625 8.2165625 -3.375 8.4375 C-6.82142047 8.78372035 -6.82142047 8.78372035 -9 10 C-9.66 9.67 -10.32 9.34 -11 9 C-11 6.69 -11 4.38 -11 2 C-12.65 2 -14.3 2 -16 2 C-16 11.57 -16 21.14 -16 31 C-16.33 31 -16.66 31 -17 31 C-17 21.1 -17 11.2 -17 1 C-14.69 1 -12.38 1 -10 1 C-9.67 1.66 -9.34 2.32 -9 3 C-8.62875 2.505 -8.2575 2.01 -7.875 1.5 C-5.25305607 -0.59755514 -3.26157528 -0.21743835 0 0 Z " fill="#ADA894" transform="translate(248,204)"/>
<path d="M0 0 C0.33 0.99 0.66 1.98 1 3 C2.5778125 2.9690625 2.5778125 2.9690625 4.1875 2.9375 C7.32704904 2.98896802 9.96883396 3.26517187 13 4 C13.66 6.64 14.32 9.28 15 12 C13.62437146 10.71034824 12.29233607 9.37310707 11 8 C11 7.34 11 6.68 11 6 C5.555 5.505 5.555 5.505 0 5 C-0.33 4.01 -0.66 3.02 -1 2 C-4.40080577 2.10407917 -4.40080577 2.10407917 -8 3 C-10.34885769 5.87924492 -11 7.27472933 -11 11 C-11.66 11 -12.32 11 -13 11 C-13 12.98 -13 14.96 -13 17 C-9.7 17.33 -6.4 17.66 -3 18 C-6.71499122 20.47666082 -8.60907888 20.54886514 -13 20 C-15.0625 18 -15.0625 18 -16 15 C-15.20980154 8.77718711 -13.34548837 5.45412558 -9 1 C-6.04335481 -0.4783226 -3.25770263 -0.06032783 0 0 Z " fill="#BC9C3F" transform="translate(101,213)"/>
<path d="M0 0 C3.3 0 6.6 0 10 0 C10.66 2.31 11.32 4.62 12 7 C11.13375 7.185625 11.13375 7.185625 10.25 7.375 C7.98902805 7.92568999 7.98902805 7.92568999 6 9 C4.00601576 9.99699212 2.17259897 10.53444308 0 11 C0.33 10.01 0.66 9.02 1 8 C0.01 8.33 -0.98 8.66 -2 9 C-1.51421457 5.87709365 -1.0013988 3.00419641 0 0 Z " fill="#BCB499" transform="translate(184,193)"/>
<path d="M0 0 C1.04285156 -0.00773438 2.08570313 -0.01546875 3.16015625 -0.0234375 C6.21005908 0.4141013 7.10028255 0.97199587 8.9375 3.375 C7.2875 3.375 5.6375 3.375 3.9375 3.375 C3.9375 4.035 3.9375 4.695 3.9375 5.375 C2.803125 5.66375 1.66875 5.9525 0.5 6.25 C-0.675625 6.62125 -1.85125 6.9925 -3.0625 7.375 C-3.3925 8.035 -3.7225 8.695 -4.0625 9.375 C-6.3725 9.375 -8.6825 9.375 -11.0625 9.375 C-10.57492928 3.88982942 -10.57492928 3.88982942 -8.39453125 1.69921875 C-5.4366996 0.01964601 -3.38634057 -0.02517725 0 0 Z " fill="#CAC5AE" transform="translate(304.0625,204.625)"/>
<path d="M0 0 C0.99 0.33 1.98 0.66 3 1 C1.14538994 5.61911677 -1.59206654 6.94778294 -5.97186279 8.99423218 C-11.60520048 10.86529329 -17.22230156 10.60861837 -23.1015625 10.48828125 C-24.41917572 10.48120651 -25.73678894 10.47413177 -27.09432983 10.46684265 C-30.56350904 10.4479338 -34.031608 10.39897933 -37.50036621 10.34332275 C-41.05348098 10.29177656 -44.60677375 10.26925397 -48.16015625 10.24414062 C-55.10720899 10.19083921 -62.05355235 10.1057287 -69 10 C-69 9.67 -69 9.34 -69 9 C-67.96096527 8.98786972 -67.96096527 8.98786972 -66.90093994 8.97549438 C-59.69842002 8.88950935 -52.49617723 8.79000808 -45.29394531 8.68261719 C-42.6051811 8.64321989 -39.9164185 8.60863212 -37.22753906 8.578125 C-33.36504669 8.53251623 -29.50291003 8.47451385 -25.640625 8.4140625 C-24.4363385 8.40251129 -23.232052 8.39096008 -21.99127197 8.37905884 C-20.30998199 8.3492543 -20.30998199 8.3492543 -18.59472656 8.31884766 C-17.60877502 8.30552399 -16.62282349 8.29220032 -15.60699463 8.2784729 C-12.90816347 7.99019024 -11.35941679 7.27583024 -9 6 C-6.67504723 5.61250787 -4.34148732 5.27017161 -2 5 C-2 4.34 -2 3.68 -2 3 C-1.34 3 -0.68 3 0 3 C0 2.01 0 1.02 0 0 Z " fill="#C7A041" transform="translate(145,194)"/>
<path d="M0 0 C0.66 0 1.32 0 2 0 C2.67413211 1.91405367 3.3390332 3.83136026 4 5.75 C4.37125 6.81734375 4.7425 7.8846875 5.125 8.984375 C6 12 6 12 6 16 C2.7 16 -0.6 16 -4 16 C-3.39891424 10.34979382 -1.92471317 5.33835539 0 0 Z " fill="#241F15" transform="translate(188,203)"/>
<path d="M0 0 C0.53341184 1.57914015 1.05125763 3.16354387 1.5625 4.75 C1.85253906 5.63171875 2.14257812 6.5134375 2.44140625 7.421875 C3.03111145 10.14359129 2.98770553 11.43088617 2 14 C1.01 15.485 1.01 15.485 0 17 C-0.66 16.67 -1.32 16.34 -2 16 C-1.01 13.69 -0.02 11.38 1 9 C0.34 9 -0.32 9 -1 9 C-1.66 11.31 -2.32 13.62 -3 16 C-3.66 15.67 -4.32 15.34 -5 15 C-5 14.34 -5 13.68 -5 13 C-5.66 13 -6.32 13 -7 13 C-6.19444444 0 -6.19444444 0 0 0 Z " fill="#0D1A0A" transform="translate(122,237)"/>
<path d="M0 0 C18.81 0 37.62 0 57 0 C57 5.39683895 56.94229443 6.89892477 54.625 11.3125 C54.18414062 12.17488281 53.74328125 13.03726563 53.2890625 13.92578125 C52 16 52 16 50 17 C51.5 11 51.5 11 53 5 C53.66 5 54.32 5 55 5 C55 3.68 55 2.36 55 1 C36.85 1 18.7 1 0 1 C0 0.67 0 0.34 0 0 Z " fill="#D3AB4C" transform="translate(98,178)"/>
<path d="M0 0 C0.66 0.99 1.32 1.98 2 3 C4.54341217 6.19556914 6.59085819 8.72723879 10 11 C7.35261084 12.4606285 6.10551666 13 3 13 C3 12.01 3 11.02 3 10 C-0.12197478 11.3089572 -0.12197478 11.3089572 -2 14 C-5.0625 14.625 -5.0625 14.625 -8 15 C-7.01 13.68 -6.02 12.36 -5 11 C-7.31 11 -9.62 11 -12 11 C-12 10.67 -12 10.34 -12 10 C-9.03 10 -6.06 10 -3 10 C-2.87625 8.535625 -2.7525 7.07125 -2.625 5.5625 C-2.4140625 3.06640625 -2.4140625 3.06640625 -2 1 C-1.34 0.67 -0.68 0.34 0 0 Z " fill="#201B15" transform="translate(262,225)"/>
<path d="M0 0 C0.66 0.66 1.32 1.32 2 2 C-2.30769231 5.07692308 -2.30769231 5.07692308 -5.8125 4.6875 C-6.534375 4.460625 -7.25625 4.23375 -8 4 C-8.66 5.65 -9.32 7.3 -10 9 C-12.31 9 -14.62 9 -17 9 C-16.73309994 5.79719931 -16.16670984 4.2056088 -14.125 1.6875 C-9.58114535 -0.76618151 -5.07424667 -0.70271371 0 0 Z " fill="#D1CCB6" transform="translate(246,153)"/>
<path d="M0 0 C1.26026798 2.52053595 0.91874445 3.8542098 0.5625 6.625 C0.46066406 7.44226563 0.35882813 8.25953125 0.25390625 9.1015625 C0.17011719 9.72804687 0.08632813 10.35453125 0 11 C-0.33 9.68 -0.66 8.36 -1 7 C-1.66 7 -2.32 7 -3 7 C-3.33 7.66 -3.66 8.32 -4 9 C-4.33 7.68 -4.66 6.36 -5 5 C-5.66 5 -6.32 5 -7 5 C-7.33 5.99 -7.66 6.98 -8 8 C-8.33 8 -8.66 8 -9 8 C-9.33 12.95 -9.66 17.9 -10 23 C-10.33 23 -10.66 23 -11 23 C-11.08706892 19.72933434 -11.14041241 16.45896635 -11.1875 13.1875 C-11.21263672 12.25873047 -11.23777344 11.32996094 -11.26367188 10.37304688 C-11.27333984 9.48037109 -11.28300781 8.58769531 -11.29296875 7.66796875 C-11.3086792 6.84578857 -11.32438965 6.0236084 -11.34057617 5.17651367 C-10.33720422 -1.23571638 -5.13676618 -0.25262784 0 0 Z " fill="#2D2B20" transform="translate(276,160)"/>
<path d="M0 0 C2 2 2 2 2.125 4.625 C2.08375 5.40875 2.0425 6.1925 2 7 C2.99 7 3.98 7 5 7 C5 5.35 5 3.7 5 2 C5.33 2 5.66 2 6 2 C6 3.98 6 5.96 6 8 C-0.27 8 -6.54 8 -13 8 C-13 6.68 -13 5.36 -13 4 C-8.59085217 2.89771304 -4.51617599 2.92345464 0 3 C0 2.01 0 1.02 0 0 Z " fill="#D4CEB9" transform="translate(296,162)"/>
<path d="M0 0 C4.29 0 8.58 0 13 0 C12.34 1.32 11.68 2.64 11 4 C10.34 4 9.68 4 9 4 C9 4.99 9 5.98 9 7 C9.66 7 10.32 7 11 7 C11 7.66 11 8.32 11 9 C8.36 9 5.72 9 3 9 C2.01 6.03 1.02 3.06 0 0 Z " fill="#06692C" transform="translate(103,239)"/>
<path d="M0 0 C0.99 0.33 1.98 0.66 3 1 C2.4140625 2.953125 1.828125 4.90625 1.2421875 6.859375 C0.75563531 9.41948952 0.75563531 9.41948952 3 13 C6.3 13 9.6 13 13 13 C13 13.99 13 14.98 13 16 C9.97170479 16.6663569 7.10601995 17.14543237 4 17 C0.9375 14.5625 0.9375 14.5625 -1 12 C-1.99 12.33 -2.98 12.66 -4 13 C-4.33 11.02 -4.66 9.04 -5 7 C-4.01 6.34 -3.02 5.68 -2 5 C-0.79549696 2.44816596 -0.79549696 2.44816596 0 0 Z " fill="#1E1503" transform="translate(85,219)"/>
<path d="M0 0 C5.28 0 10.56 0 16 0 C16 2.31 16 4.62 16 7 C10.72 7 5.44 7 0 7 C0.99 6.34 1.98 5.68 3 5 C3 4.34 3 3.68 3 3 C1.68 3.33 0.36 3.66 -1 4 C-1 3.34 -1 2.68 -1 2 C0.07121094 2.01160156 1.14242187 2.02320313 2.24609375 2.03515625 C3.64322743 2.04453299 5.04036299 2.05363331 6.4375 2.0625 C7.14455078 2.07087891 7.85160156 2.07925781 8.58007812 2.08789062 C10.38693559 2.09653588 12.19387603 2.05220011 14 2 C14.33 1.67 14.66 1.34 15 1 C10.05 1 5.1 1 0 1 C0 0.67 0 0.34 0 0 Z " fill="#B9B39C" transform="translate(194,159)"/>
<path d="M0 0 C2 2 2 2 2.08203125 4.35546875 C1.0616276 15.07710134 -2.58594119 22.17698065 -10 30 C-12.49770708 32.03105362 -14.96122406 33.8882527 -18 35 C-18.99 34.67 -19.98 34.34 -21 34 C-20.43152344 33.6596875 -19.86304688 33.319375 -19.27734375 32.96875 C-8.46230515 26.18001124 -3.88691808 19.49940357 -1 7 C-0.54630186 4.64692152 -0.22212329 2.3878254 0 0 Z " fill="#360E08" transform="translate(171,134)"/>
<path d="M0 0 C0.99 0.66 1.98 1.32 3 2 C4.65549531 2.38499891 6.3222433 2.72793135 8 3 C6.81458694 6.37386793 5.82746274 8.75917805 3 11 C0.9152832 11.34057617 0.9152832 11.34057617 -1.44921875 11.29296875 C-2.29677734 11.28330078 -3.14433594 11.27363281 -4.01757812 11.26367188 C-5.33918945 11.2259668 -5.33918945 11.2259668 -6.6875 11.1875 C-7.58017578 11.17396484 -8.47285156 11.16042969 -9.39257812 11.14648438 C-11.59566166 11.11114079 -13.79752582 11.06180493 -16 11 C-16 10.01 -16 9.02 -16 8 C-16.99 7.67 -17.98 7.34 -19 7 C-18.34 6.67 -17.68 6.34 -17 6 C-16.34 6.33 -15.68 6.66 -15 7 C-15 7.66 -15 8.32 -15 9 C-9.06 8.67 -3.12 8.34 3 8 C2.01 6.02 1.02 4.04 0 2 C0 1.34 0 0.68 0 0 Z " fill="#C0A638" transform="translate(117,226)"/>
<path d="M0 0 C1.8871875 0.061875 1.8871875 0.061875 3.8125 0.125 C3.0625 5.875 3.0625 5.875 0.8125 8.125 C-2.75 8.3125 -2.75 8.3125 -6.1875 8.125 C-7.1875 7.125 -7.1875 7.125 -7.4375 4.6875 C-7.355 3.841875 -7.2725 2.99625 -7.1875 2.125 C-4.09861478 0.06574319 -3.47814073 -0.1140374 0 0 Z " fill="#231E14" transform="translate(306.1875,221.875)"/>
<path d="M0 0 C1.8871875 0.061875 1.8871875 0.061875 3.8125 0.125 C3.5625 3 3.5625 3 2.8125 6.125 C-0.02175364 8.35191358 -2.66496369 8.41061105 -6.1875 8.125 C-7.1875 7.125 -7.1875 7.125 -7.4375 4.6875 C-7.355 3.841875 -7.2725 2.99625 -7.1875 2.125 C-4.09861478 0.06574319 -3.47814073 -0.1140374 0 0 Z " fill="#262012" transform="translate(242.1875,169.875)"/>
<path d="M0 0 C1.18916016 0.09861328 1.18916016 0.09861328 2.40234375 0.19921875 C4.35326366 0.36375416 6.30195497 0.55434482 8.25 0.75 C8.25 1.08 8.25 1.41 8.25 1.75 C7.58613281 1.77578125 6.92226563 1.8015625 6.23828125 1.828125 C0.70902681 2.18328879 -2.78069769 2.54013391 -6.75 6.75 C-8.51323505 8.87603185 -8.51323505 8.87603185 -9.75 10.75 C-10.08 10.09 -10.41 9.43 -10.75 8.75 C-11.41 8.75 -12.07 8.75 -12.75 8.75 C-13.09302957 5.66273383 -13.03602401 4.17599321 -11.28125 1.5625 C-7.53332418 -1.12119997 -4.44279964 -0.4641731 0 0 Z " fill="#1C1810" transform="translate(271.75,203.25)"/>
<path d="M0 0 C0 1.98 0 3.96 0 6 C-2.31 5.67 -4.62 5.34 -7 5 C-7.33 5.66 -7.66 6.32 -8 7 C-10.5625 7.625 -10.5625 7.625 -13 8 C-12.62951193 5.4065835 -11.94398898 3.91934413 -10.4375 1.75 C-6.86856177 -0.81231463 -4.32918986 -0.28861266 0 0 Z " fill="#B7B59B" transform="translate(227,193)"/>
<path d="M0 0 C3.63 0 7.26 0 11 0 C10.07291361 3.70834555 9.63015657 5.36984343 7 8 C4.3125 8.25 4.3125 8.25 2 8 C1.34 5.36 0.68 2.72 0 0 Z " fill="#7A2A29" transform="translate(103,250)"/>
<path d="M0 0 C0.33 0 0.66 0 1 0 C1.0825 1.2375 1.165 2.475 1.25 3.75 C1.6473484 7.35457843 1.6473484 7.35457843 4.1875 10 C4.785625 10.66 5.38375 11.32 6 12 C5.75304278 14.19615532 5.19403817 16.10585508 4.48046875 18.1953125 C3.76492132 20.0817352 3.76492132 20.0817352 5 22 C4.01 21.67 3.02 21.34 2 21 C1.67 23.64 1.34 26.28 1 29 C0.67 29 0.34 29 0 29 C0 19.43 0 9.86 0 0 Z " fill="#100D06" transform="translate(224,144)"/>
<path d="M0 0 C2.33936818 2.12669835 3.80653848 4.06224856 5 7 C5 7.99 5 8.98 5 10 C2.36 10 -0.28 10 -3 10 C-4.25664978 7.09399739 -5 5.20395416 -5 2 C-4.01 1.67 -3.02 1.34 -2 1 C-1.34 1.66 -0.68 2.32 0 3 C0 2.01 0 1.02 0 0 Z " fill="#C9C2A8" transform="translate(203,225)"/>
<path d="M0 0 C0.66 0.33 1.32 0.66 2 1 C1.01 2.485 1.01 2.485 0 4 C-0.99 4 -1.98 4 -3 4 C-3 4.66 -3 5.32 -3 6 C-3.99 6.66 -4.98 7.32 -6 8 C-6.72382467 10.05925139 -6.72382467 10.05925139 -7 12 C-7.99 12 -8.98 12 -10 12 C-10.2475 12.66 -10.495 13.32 -10.75 14 C-12.31817045 17.76360907 -14.14505046 21.3711424 -16 25 C-16.33 25 -16.66 25 -17 25 C-16.66466192 17.11955513 -12.63759195 11.894918 -7.4375 6.1875 C-5.02711412 4.02433319 -2.56416148 1.97806743 0 0 Z " fill="#882A2B" transform="translate(93,138)"/>
<path d="M0 0 C3.5625 0.1875 3.5625 0.1875 5.5625 2.1875 C5.5625 3.5075 5.5625 4.8275 5.5625 6.1875 C1.6025 6.1875 -2.3575 6.1875 -6.4375 6.1875 C-4.0508829 0.22095725 -4.0508829 0.22095725 0 0 Z " fill="#292315" transform="translate(289.4375,158.8125)"/>
<path d="M0 0 C2.31 0.33 4.62 0.66 7 1 C7.125 3.375 7.125 3.375 7 6 C5 8 5 8 2.375 8.125 C1.59125 8.08375 0.8075 8.0425 0 8 C-1.125 5.6875 -1.125 5.6875 -2 3 C-1.34 2.01 -0.68 1.02 0 0 Z " fill="#C8C1AE" transform="translate(251,193)"/>
<path d="M0 0 C1.65322266 0.01740234 1.65322266 0.01740234 3.33984375 0.03515625 C4.99693359 0.04869141 4.99693359 0.04869141 6.6875 0.0625 C7.54214844 0.07410156 8.39679688 0.08570313 9.27734375 0.09765625 C6.40234375 4.97265625 6.40234375 4.97265625 5.27734375 6.09765625 C1.83984375 5.91015625 1.83984375 5.91015625 -1.72265625 5.09765625 C-3.16015625 3.03515625 -3.16015625 3.03515625 -3.72265625 1.09765625 C-2.72265625 0.09765625 -2.72265625 0.09765625 0 0 Z " fill="#282216" transform="translate(287.72265625,171.90234375)"/>
<path d="M0 0 C1.32 0 2.64 0 4 0 C6.93161919 5.62870885 7.2019586 8.77166905 6 15 C4 15 4 15 2.3125 13.4375 C0.47673381 10.02821993 1.21777681 7.69778233 2 4 C1.34 3.67 0.68 3.34 0 3 C0 2.01 0 1.02 0 0 Z " fill="#0C1709" transform="translate(96,235)"/>
<path d="M0 0 C0.66 0 1.32 0 2 0 C2.66 1.65 3.32 3.3 4 5 C6.31 5.33 8.62 5.66 11 6 C10.67 6.66 10.34 7.32 10 8 C7.9375 8.625 7.9375 8.625 6 9 C6.66 9.66 7.32 10.32 8 11 C0.5577342 11.36601307 0.5577342 11.36601307 -2 9.6875 C-3 8 -3 8 -3 5 C-2.360625 5.33 -1.72125 5.66 -1.0625 6 C0.76794567 7.07271225 0.76794567 7.07271225 2 7 C1.484375 6.401875 0.96875 5.80375 0.4375 5.1875 C-0.036875 4.465625 -0.51125 3.74375 -1 3 C-0.67 2.01 -0.34 1.02 0 0 Z " fill="#D3CEB7" transform="translate(232,172)"/>
<path d="M0 0 C0.33 0 0.66 0 1 0 C1.19632025 3.6245793 1.38055978 7.24967267 1.5625 10.875 C1.61857422 11.90753906 1.67464844 12.94007813 1.73242188 14.00390625 C1.78076172 14.99003906 1.82910156 15.97617188 1.87890625 16.9921875 C1.9260376 17.90339355 1.97316895 18.81459961 2.02172852 19.75341797 C2 22 2 22 1 24 C-2.73487777 23.5020163 -4.81237635 23.12508244 -8 21 C-8 20.34 -8 19.68 -8 19 C-5.36 19 -2.72 19 0 19 C0 12.73 0 6.46 0 0 Z " fill="#2D261C" transform="translate(238,216)"/>
<path d="M0 0 C7.26 0 14.52 0 22 0 C22 1.98 22 3.96 22 6 C16.06 6 10.12 6 4 6 C4 5.67 4 5.34 4 5 C8.95 4.67 13.9 4.34 19 4 C18.67 3.34 18.34 2.68 18 2 C17.11957031 2.01160156 16.23914063 2.02320313 15.33203125 2.03515625 C13.58986328 2.04869141 13.58986328 2.04869141 11.8125 2.0625 C10.66394531 2.07410156 9.51539063 2.08570313 8.33203125 2.09765625 C5.40699414 2.01192832 2.83683709 1.67849023 0 1 C0 0.67 0 0.34 0 0 Z " fill="#D7D3BF" transform="translate(189,143)"/>
<path d="M0 0 C0.33 0.66 0.66 1.32 1 2 C0.01 3.485 0.01 3.485 -1 5 C-0.67 5.33 -0.34 5.66 0 6 C0.66 6 1.32 6 2 6 C1.67 6.99 1.34 7.98 1 9 C-5.93 8.505 -5.93 8.505 -13 8 C-11.68 7.34 -10.36 6.68 -9 6 C-8.67 5.67 -8.34 5.34 -8 5 C-9.32 4.34 -10.64 3.68 -12 3 C-8.37 3 -4.74 3 -1 3 C-0.67 2.01 -0.34 1.02 0 0 Z " fill="#CFC9AE" transform="translate(196,217)"/>
<path d="M0 0 C0.33 0 0.66 0 1 0 C1 2.31 1 4.62 1 7 C2.65 7 4.3 7 6 7 C6 14.59 6 22.18 6 30 C5.67 30 5.34 30 5 30 C5 23.4 5 16.8 5 10 C3.68 9.67 2.36 9.34 1 9 C0.67 9.99 0.34 10.98 0 12 C-0.66 11.67 -1.32 11.34 -2 11 C-1.34 7.37 -0.68 3.74 0 0 Z " fill="#0F0C03" transform="translate(208,204)"/>
<path d="M0 0 C3 1 3 1 4 3 C4.99 3.33 5.98 3.66 7 4 C5.35 5.32 3.7 6.64 2 8 C1.67 7.34 1.34 6.68 1 6 C0.01 6.495 0.01 6.495 -1 7 C-1.65213292 9.02463255 -1.65213292 9.02463255 -2 11 C-2.66 11 -3.32 11 -4 11 C-4.36630156 7.06225823 -4.30233203 5.43460229 -2 2.125 C-1.34 1.42375 -0.68 0.7225 0 0 Z " fill="#CCC5AD" transform="translate(267,207)"/>
<path d="M0 0 C3.16115776 1.36983503 3.9927092 1.9890638 6 5 C6 6.32 6 7.64 6 9 C3.69 9 1.38 9 -1 9 C-1.66 7.68 -2.32 6.36 -3 5 C-1.68 4.34 -0.36 3.68 1 3 C0.67 2.01 0.34 1.02 0 0 Z " fill="#B9B59E" transform="translate(282,206)"/>
<path d="M0 0 C0.602537 6.02536998 0.602537 6.02536998 -1.11328125 8.80078125 C-2.34621853 10.25599455 -3.66808933 11.63479157 -5 13 C-5.66 12.67 -6.32 12.34 -7 12 C-6.360625 11.21625 -5.72125 10.4325 -5.0625 9.625 C-3.01857687 7.20460719 -3.01857687 7.20460719 -2 5 C-3.65 5 -5.3 5 -7 5 C-7.33 4.01 -7.66 3.02 -8 2 C-4.77208445 -0.1519437 -3.71599191 -0.20086443 0 0 Z " fill="#1F1702" transform="translate(127,224)"/>
<path d="M0 0 C2.62386487 3.06117568 3 3.73173127 3 8 C5.93638223 7.43968727 5.93638223 7.43968727 9 6 C10.91839859 2.9994093 10.91839859 2.9994093 12 0 C13.24405721 2.94049886 12.97118726 4.08643821 11.9375 7.1875 C10 10 10 10 6.8125 10.875 C5.4203125 10.936875 5.4203125 10.936875 4 11 C1 6.25 1 6.25 1 4 C0.34 4 -0.32 4 -1 4 C-0.67 2.68 -0.34 1.36 0 0 Z " fill="#330C07" transform="translate(102,250)"/>
<path d="M0 0 C2.73722628 5.10948905 2.73722628 5.10948905 3 8 C1.5625 10.75 1.5625 10.75 0 13 C-3.93846154 9.67692308 -3.93846154 9.67692308 -4.25 6.25 C-4.12625 5.13625 -4.12625 5.13625 -4 4 C-2.68 4.33 -1.36 4.66 0 5 C0 3.35 0 1.7 0 0 Z " fill="#CEC7AC" transform="translate(267,219)"/>
<path d="M0 0 C5.28 0 10.56 0 16 0 C16 1.33333333 16 2.66666667 16 4 C14.54207116 4.05399736 13.08357288 4.09279177 11.625 4.125 C10.81289062 4.14820313 10.00078125 4.17140625 9.1640625 4.1953125 C7 4 7 4 5 2 C2.41645782 1.83312552 2.41645782 1.83312552 0 2 C0 1.34 0 0.68 0 0 Z " fill="#CCC6AA" transform="translate(193,144)"/>
<path d="M0 0 C0.99 0 1.98 0 3 0 C3.50615298 1.26839526 4.00469099 2.53983102 4.5 3.8125 C4.7784375 4.52019531 5.056875 5.22789062 5.34375 5.95703125 C6 8 6 8 6 11 C0.06 11 -5.88 11 -12 11 C-12 10.67 -12 10.34 -12 10 C-7.05 9.67 -2.1 9.34 3 9 C1.515 6.03 1.515 6.03 0 3 C0 2.01 0 1.02 0 0 Z " fill="#CF9B16" transform="translate(114,224)"/>
<path d="M0 0 C1.98 0 3.96 0 6 0 C6.33 2.64 6.66 5.28 7 8 C4.03 7.505 4.03 7.505 1 7 C0.67 4.69 0.34 2.38 0 0 Z " fill="#C8C2AD" transform="translate(259,153)"/>
<path d="M0 0 C2.31 0 4.62 0 7 0 C7.33 1.65 7.66 3.3 8 5 C5.69 5 3.38 5 1 5 C1 4.34 1 3.68 1 3 C0.34 3 -0.32 3 -1 3 C-0.67 2.01 -0.34 1.02 0 0 Z " fill="#1B170B" transform="translate(237,159)"/>
<path d="M0 0 C1.79133978 -0.05391993 3.58313899 -0.09275571 5.375 -0.125 C6.37273437 -0.14820313 7.37046875 -0.17140625 8.3984375 -0.1953125 C11 0 11 0 13 2 C8.58148893 5.06841046 8.58148893 5.06841046 5.875 4.75 C5.25625 4.5025 4.6375 4.255 4 4 C3.01 3.67 2.02 3.34 1 3 C0.67 2.01 0.34 1.02 0 0 Z " fill="#D0CAB8" transform="translate(235,153)"/>
<path d="M0 0 C1.134375 0.020625 2.26875 0.04125 3.4375 0.0625 C2.93918276 3.75004757 2.33682357 5.66740662 -0.5625 8.0625 C-1.5525 7.7325 -2.5425 7.4025 -3.5625 7.0625 C-2.9025 5.4125 -2.2425 3.7625 -1.5625 2.0625 C-2.5525 1.7325 -3.5425 1.4025 -4.5625 1.0625 C-3.5625 0.0625 -3.5625 0.0625 0 0 Z " fill="#CBC6B3" transform="translate(284.5625,225.9375)"/>
<path d="M0 0 C0.99 0.495 0.99 0.495 2 1 C2 3.97 2 6.94 2 10 C4.64 10 7.28 10 10 10 C9.67 10.99 9.34 11.98 9 13 C3.51923077 13.36538462 3.51923077 13.36538462 1.3125 11.8125 C-0.45312631 9.37425415 -0.30348915 7.78955493 -0.1875 4.8125 C-0.16042969 3.91144531 -0.13335937 3.01039063 -0.10546875 2.08203125 C-0.07066406 1.39496094 -0.03585937 0.70789063 0 0 Z " fill="#161308" transform="translate(270,216)"/>
<path d="M0 0 C1.43655854 -0.08131463 2.8744483 -0.13933559 4.3125 -0.1875 C5.51326172 -0.23970703 5.51326172 -0.23970703 6.73828125 -0.29296875 C9.47851584 0.06198392 10.29171079 0.89366282 12 3 C10.35 3 8.7 3 7 3 C7 3.66 7 4.32 7 5 C4.36 5.33 1.72 5.66 -1 6 C-0.67 4.02 -0.34 2.04 0 0 Z " fill="#D3CFB5" transform="translate(301,205)"/>
<path d="M0 0 C0.33 0 0.66 0 1 0 C1 5.61 1 11.22 1 17 C-0.98 17 -2.96 17 -5 17 C-4.67 15.68 -4.34 14.36 -4 13 C-3.34 13.33 -2.68 13.66 -2 14 C-0.99740493 10.99221479 -0.69685358 8.46179353 -0.4375 5.3125 C-0.35371094 4.31863281 -0.26992187 3.32476562 -0.18359375 2.30078125 C-0.12300781 1.54152344 -0.06242188 0.78226563 0 0 Z " fill="#C6C1AB" transform="translate(193,166)"/>
<path d="M0 0 C1.485 0.99 1.485 0.99 3 2 C3.125 4.875 3.125 4.875 3 8 C3.43941523 10.26566343 3.43941523 10.26566343 4 12 C3.01 12.495 3.01 12.495 2 13 C2 14.98 2 16.96 2 19 C1.34 19.33 0.68 19.66 0 20 C0 13.4 0 6.8 0 0 Z " fill="#100D04" transform="translate(258,216)"/>
<path d="M0 0 C1.98 0.66 3.96 1.32 6 2 C5.67 2.66 5.34 3.32 5 4 C3.68 4.33 2.36 4.66 1 5 C0.34 7.97 -0.32 10.94 -1 14 C-1.33 14 -1.66 14 -2 14 C-2.05410687 12.22950311 -2.09284119 10.45853151 -2.125 8.6875 C-2.14820313 7.70136719 -2.17140625 6.71523437 -2.1953125 5.69921875 C-2 3 -2 3 0 0 Z " fill="#B5B098" transform="translate(278,159)"/>
<path d="M0 0 C3.375 0.25 3.375 0.25 7 1 C8.4375 3.0625 8.4375 3.0625 9 5 C4.98195309 5.84098656 1.98196457 6.05404945 -2 5 C-1 3 -1 3 2 2 C1.34 1.34 0.68 0.68 0 0 Z " fill="#D1CDB4" transform="translate(289,153)"/>
<path d="M0 0 C0.66 0.33 1.32 0.66 2 1 C1.34 3.31 0.68 5.62 0 8 C-2.64 8 -5.28 8 -8 8 C-7.34 7.01 -6.68 6.02 -6 5 C-6 5.66 -6 6.32 -6 7 C-4.10479998 5.10479998 -2.59336327 3.14757658 -1 1 C-0.67 0.67 -0.34 0.34 0 0 Z " fill="#CBC6B1" transform="translate(178,227)"/>
<path d="M0 0 C2.31 0 4.62 0 7 0 C7.33 0.66 7.66 1.32 8 2 C10.05931532 2.42961221 10.05931532 2.42961221 12.4375 2.5625 C16.81333333 2.90666667 16.81333333 2.90666667 19 4 C19 4.66 19 5.32 19 6 C17.35 6 15.7 6 14 6 C14 5.34 14 4.68 14 4 C11.36 4.33 8.72 4.66 6 5 C5.67 4.34 5.34 3.68 5 3 C5.33 2.34 5.66 1.68 6 1 C4.02 1 2.04 1 0 1 C0 0.67 0 0.34 0 0 Z " fill="#CEA21B" transform="translate(93,215)"/>
<path d="M0 0 C0.33 0.66 0.66 1.32 1 2 C0.34 2 -0.32 2 -1 2 C-1.66 3.32 -2.32 4.64 -3 6 C-5.64 5.34 -8.28 4.68 -11 4 C-7.26280719 0.48264206 -5.13496308 -0.47767098 0 0 Z " fill="#C8C2A8" transform="translate(314,207)"/>
<path d="M0 0 C1.66628955 0.03545297 3.33409803 0.05048188 5 0 C5.33 0.66 5.66 1.32 6 2 C3.54617866 3.22691067 1.80015897 3.20175931 -0.9375 3.25 C-2.25041016 3.28867188 -2.25041016 3.28867188 -3.58984375 3.328125 C-6.4193869 2.94290357 -7.25132925 2.19305243 -9 0 C-5.94077605 -1.52961198 -3.32521452 -0.50723611 0 0 Z " fill="#B8B49C" transform="translate(291,181)"/>
<path d="M0 0 C0.33 0.66 0.66 1.32 1 2 C1.66 2.33 2.32 2.66 3 3 C0.36 3.33 -2.28 3.66 -5 4 C-5.33 6.64 -5.66 9.28 -6 12 C-7.32 12.33 -8.64 12.66 -10 13 C-10 12.34 -10 11.68 -10 11 C-9.01 11 -8.02 11 -7 11 C-7 8.36 -7 5.72 -7 3 C-8.98 3 -10.96 3 -13 3 C-13 2.67 -13 2.34 -13 2 C-8.34462607 1.16203269 -4.62921525 0.9838308 0 2 C0 1.34 0 0.68 0 0 Z " fill="#0F0A02" transform="translate(255,201)"/>
<path d="M0 0 C0 2.64 0 5.28 0 8 C-1.98 8 -3.96 8 -6 8 C-6 7.67 -6 7.34 -6 7 C-4.35 7 -2.7 7 -1 7 C-1.33 5.68 -1.66 4.36 -2 3 C-2.99 3.66 -3.98 4.32 -5 5 C-7.1875 4.625 -7.1875 4.625 -9 4 C-6.25137935 -0.12293098 -4.89482776 0 0 0 Z " fill="#9D9988" transform="translate(275,152)"/>
<path d="M0 0 C2.31 0 4.62 0 7 0 C6.67 1.65 6.34 3.3 6 5 C4.35 5 2.7 5 1 5 C0.67 3.35 0.34 1.7 0 0 Z " fill="#922023" transform="translate(106,251)"/>
<path d="M0 0 C0.33 0 0.66 0 1 0 C0.53031881 5.63617433 -0.90672313 10.21417541 -4 15 C-4.99 15.495 -4.99 15.495 -6 16 C-5 12 -4 8 -3 4 C-2.01 4 -1.02 4 0 4 C0 2.68 0 1.36 0 0 Z " fill="#C09E40" transform="translate(154,179)"/>
<path d="M0 0 C2.875 -0.125 2.875 -0.125 6 0 C6.66 0.66 7.32 1.32 8 2 C3.75756534 4.29798544 1.32400808 5.41819282 -3.4375 4.1875 C-4.613125 3.795625 -5.78875 3.40375 -7 3 C-6.34 2.34 -5.68 1.68 -5 1 C-2.375 1.375 -2.375 1.375 0 2 C0 1.34 0 0.68 0 0 Z " fill="#C2BDA4" transform="translate(243,155)"/>
<path d="M0 0 C0.99 0.99 1.98 1.98 3 3 C1.6875 5 1.6875 5 0 7 C-0.99 7 -1.98 7 -3 7 C-3 6.34 -3 5.68 -3 5 C-5.64 5 -8.28 5 -11 5 C-11 4.67 -11 4.34 -11 4 C-7.7 3.67 -4.4 3.34 -1 3 C-0.67 2.01 -0.34 1.02 0 0 Z " fill="#1F1C13" transform="translate(211,231)"/>
<path d="M0 0 C1.98 0 3.96 0 6 0 C5.938125 0.763125 5.87625 1.52625 5.8125 2.3125 C5.74101915 5.04525312 5.74101915 5.04525312 7.5 6.8125 C7.995 7.204375 8.49 7.59625 9 8 C8.01 8.495 8.01 8.495 7 9 C6.5875 8.54625 6.175 8.0925 5.75 7.625 C3.93591905 5.94049626 2.24714373 5.00734029 0 4 C0.66 3.67 1.32 3.34 2 3 C1.34 2.67 0.68 2.34 0 2 C0 1.34 0 0.68 0 0 Z " fill="#271A07" transform="translate(97,208)"/>
<path d="M0 0 C0.33 0.99 0.66 1.98 1 3 C2.11375 2.690625 2.11375 2.690625 3.25 2.375 C6.37796068 1.94845991 7.32595741 2.50299325 10 4 C8.43883181 4.33951619 6.87598662 4.67132544 5.3125 5 C4.00732422 5.2784375 4.00732422 5.2784375 2.67578125 5.5625 C0.06287036 5.98972047 -2.35813038 6.07616201 -5 6 C-4.34 4.68 -3.68 3.36 -3 2 C-2.01 2 -1.02 2 0 2 C0 1.34 0 0.68 0 0 Z " fill="#171309" transform="translate(300,212)"/>
<path d="M0 0 C2 3 2 3 1.4375 5.9375 C-0.18648432 9.39729268 -1.87817116 10.86401185 -5 13 C-4.39254603 8.14036821 -2.27241033 4.2594482 0 0 Z " fill="#2E1D06" transform="translate(153,186)"/>
<path d="M0 0 C1.33333333 2.66666667 2.66666667 5.33333333 4 8 C4.66 8 5.32 8 6 8 C5.67 9.32 5.34 10.64 5 12 C4.67 11.34 4.34 10.68 4 10 C2.68 10.33 1.36 10.66 0 11 C0 7.37 0 3.74 0 0 Z " fill="#D3CEB3" transform="translate(277,163)"/>
<path d="M0 0 C1.65 0 3.3 0 5 0 C4.75 1.875 4.75 1.875 4 4 C1.9375 5.25 1.9375 5.25 0 6 C1.65 6 3.3 6 5 6 C5 6.33 5 6.66 5 7 C3.02 7 1.04 7 -1 7 C-1 6.34 -1 5.68 -1 5 C-1.99 4.67 -2.98 4.34 -4 4 C-2.68 3.34 -1.36 2.68 0 2 C0 1.34 0 0.68 0 0 Z " fill="#B0AC95" transform="translate(287,152)"/>
<path d="M0 0 C0.33 0 0.66 0 1 0 C1.25 2.8125 1.25 2.8125 1 6 C-1 7.875 -1 7.875 -3 9 C-3.93423645 5.98968256 -4.04449911 5.13349732 -3 2 C-5.31 2 -7.62 2 -10 2 C-10 1.67 -10 1.34 -10 1 C-7.36 1 -4.72 1 -2 1 C-1.67 1.99 -1.34 2.98 -1 4 C-0.67 2.68 -0.34 1.36 0 0 Z " fill="#3A362C" transform="translate(291,224)"/>
<path d="M0 0 C0.99 0.33 1.98 0.66 3 1 C2.34 1 1.68 1 1 1 C1 2.32 1 3.64 1 5 C-1.31 5 -3.62 5 -6 5 C-5.67 4.34 -5.34 3.68 -5 3 C-6.32 2.34 -7.64 1.68 -9 1 C-6.66705225 0.95758277 -4.33297433 0.95907063 -2 1 C-1.67 1.33 -1.34 1.66 -1 2 C-0.67 1.34 -0.34 0.68 0 0 Z " fill="#D1CDB4" transform="translate(307,217)"/>
<path d="M0 0 C-1.6875 2.0625 -1.6875 2.0625 -4 4 C-6.75 3.75 -6.75 3.75 -9 3 C-9.33 2.01 -9.66 1.02 -10 0 C-6.33694766 -0.74926071 -3.57644848 -1.2380014 0 0 Z " fill="#1C1811" transform="translate(297,173)"/>
<path d="M0 0 C0.99 0.33 1.98 0.66 3 1 C-2.96583144 8.66742597 -2.96583144 8.66742597 -8 10 C-6.75 7.0625 -6.75 7.0625 -5 4 C-2.875 3.3125 -2.875 3.3125 -1 3 C-0.67 2.01 -0.34 1.02 0 0 Z " fill="#8F2A2B" transform="translate(161,156)"/>
<path d="M0 0 C1.32 0 2.64 0 4 0 C3.67 1.65 3.34 3.3 3 5 C3.66 5.33 4.32 5.66 5 6 C3.02 6 1.04 6 -1 6 C-1.042721 4.33388095 -1.04063832 2.66617115 -1 1 C-0.67 0.67 -0.34 0.34 0 0 Z " fill="#221F11" transform="translate(222,199)"/>
<path d="M0 0 C1.4540625 0.0309375 1.4540625 0.0309375 2.9375 0.0625 C1.9475 0.3925 0.9575 0.7225 -0.0625 1.0625 C0.2675 2.3825 0.5975 3.7025 0.9375 5.0625 C-1.0425 5.0625 -3.0225 5.0625 -5.0625 5.0625 C-3.9375 0.08035714 -3.9375 0.08035714 0 0 Z " fill="#171208" transform="translate(289.0625,158.9375)"/>
<path d="M0 0 C0.66 0.99 1.32 1.98 2 3 C0.02 6.63 -1.96 10.26 -4 14 C-4.33 14 -4.66 14 -5 14 C-4.53411505 8.29290936 -3.06242216 4.84060277 0 0 Z " fill="#7E2523" transform="translate(81,149)"/>
<path d="M0 0 C1.32 0.66 2.64 1.32 4 2 C3.67 3.65 3.34 5.3 3 7 C1.35 7 -0.3 7 -2 7 C-1.67 5.68 -1.34 4.36 -1 3 C-0.34 3 0.32 3 1 3 C0.67 2.01 0.34 1.02 0 0 Z " fill="#D1CAAD" transform="translate(294,223)"/>
<path d="M0 0 C1.98 0 3.96 0 6 0 C6 0.66 6 1.32 6 2 C4.68 2 3.36 2 2 2 C2 2.99 2 3.98 2 5 C2.66 5 3.32 5 4 5 C4.33 4.34 4.66 3.68 5 3 C5.33 3.99 5.66 4.98 6 6 C4.02 6 2.04 6 0 6 C0 4.02 0 2.04 0 0 Z " fill="#C1BDAA" transform="translate(209,205)"/>
<path d="M0 0 C0.33 0 0.66 0 1 0 C1 1.98 1 3.96 1 6 C-1.64 6 -4.28 6 -7 6 C-6.67 5.01 -6.34 4.02 -6 3 C-4.02 2.67 -2.04 2.34 0 2 C0 1.34 0 0.68 0 0 Z " fill="#D4CEB9" transform="translate(273,153)"/>
<path d="M0 0 C1.32 0 2.64 0 4 0 C4 0.99 4 1.98 4 3 C5.32 3.33 6.64 3.66 8 4 C4.7 4 1.4 4 -2 4 C-1.34 2.68 -0.68 1.36 0 0 Z " fill="#150D0A" transform="translate(186,215)"/>
<path d="M0 0 C1.28132813 0.10183594 2.56265625 0.20367187 3.8828125 0.30859375 C4.87023437 0.39238281 5.85765625 0.47617188 6.875 0.5625 C6.875 0.8925 6.875 1.2225 6.875 1.5625 C6.18792969 1.62308594 5.50085938 1.68367187 4.79296875 1.74609375 C3.44138672 1.87177734 3.44138672 1.87177734 2.0625 2 C1.16917969 2.08121094 0.27585937 2.16242188 -0.64453125 2.24609375 C-3.25243559 2.49739767 -3.25243559 2.49739767 -6.125 3.5625 C-7.115 2.5725 -8.105 1.5825 -9.125 0.5625 C-6.07230154 -0.96384923 -3.36654311 -0.27544444 0 0 Z " fill="#393427" transform="translate(273.125,203.4375)"/>
<path d="M0 0 C1.65 0 3.3 0 5 0 C5 0.66 5 1.32 5 2 C4.34 2 3.68 2 3 2 C3 2.99 3 3.98 3 5 C1.68 5.33 0.36 5.66 -1 6 C-0.67 4.02 -0.34 2.04 0 0 Z " fill="#C7C1AB" transform="translate(184,194)"/>
<path d="M0 0 C0.99 0.33 1.98 0.66 3 1 C2.74438677 3.3431213 2.40729228 5.67843403 2 8 C1.01 8.495 1.01 8.495 0 9 C0 8.34 0 7.68 0 7 C-0.66 7 -1.32 7 -2 7 C-1.34 4.69 -0.68 2.38 0 0 Z " fill="#251E12" transform="translate(180,228)"/>
<path d="M0 0 C1.485 0.99 1.485 0.99 3 2 C4.65549531 2.38499891 6.3222433 2.72793135 8 3 C7.34 4.65 6.68 6.3 6 8 C5.67 7.01 5.34 6.02 5 5 C2.98491642 4.26676204 2.98491642 4.26676204 1 4 C0.67 2.68 0.34 1.36 0 0 Z " fill="#B39441" transform="translate(117,226)"/>
<path d="M0 0 C2.31 0 4.62 0 7 0 C7 1.65 7 3.3 7 5 C6.01 4.67 5.02 4.34 4 4 C4.33 3.67 4.66 3.34 5 3 C3.35 2.67 1.7 2.34 0 2 C0 1.34 0 0.68 0 0 Z " fill="#CFCCB5" transform="translate(219,193)"/>
<path d="M0 0 C3.05515845 2.0367723 3.60256625 2.80586573 5 6 C5.33 6.66 5.66 7.32 6 8 C5.01 8.33 4.02 8.66 3 9 C2.67 7.02 2.34 5.04 2 3 C0.35 3 -1.3 3 -3 3 C-2.01 2.01 -1.02 1.02 0 0 Z " fill="#2D1D05" transform="translate(112,214)"/>
<path d="M0 0 C2.97 0.33 5.94 0.66 9 1 C9 1.33 9 1.66 9 2 C7.02 2.33 5.04 2.66 3 3 C3.33 3.66 3.66 4.32 4 5 C2.68 5.33 1.36 5.66 0 6 C0 4.02 0 2.04 0 0 Z " fill="#C2BFA4" transform="translate(298,205)"/>
<path d="M0 0 C1.32 0 2.64 0 4 0 C4 1.98 4 3.96 4 6 C2.68 6 1.36 6 0 6 C0 4.02 0 2.04 0 0 Z " fill="#D0CBB7" transform="translate(243,205)"/>
<path d="M0 0 C1.25541557 3.76624671 0.37061958 5.37188934 -1 9 C-1.66 9 -2.32 9 -3 9 C-2.25 2.25 -2.25 2.25 0 0 Z " fill="#231801" transform="translate(75,197)"/>
<path d="M0 0 C0.99 0.33 1.98 0.66 3 1 C1 4 -1 7 -3 10 C-4 7 -4 7 -3.22265625 5.17578125 C-2.1484375 3.45052083 -1.07421875 1.72526042 0 0 Z " fill="#2A1901" transform="translate(79,185)"/>
<path d="M0 0 C2.625 0.375 2.625 0.375 5 1 C3.35 2.65 1.7 4.3 0 6 C-0.66 4.68 -1.32 3.36 -2 2 C-1.34 1.34 -0.68 0.68 0 0 Z " fill="#251807" transform="translate(84,178)"/>
<path d="M0 0 C1.32 0 2.64 0 4 0 C4.33 1.32 4.66 2.64 5 4 C4.01 4.33 3.02 4.66 2 5 C1.01 4.34 0.02 3.68 -1 3 C-0.67 2.01 -0.34 1.02 0 0 Z " fill="#17130A" transform="translate(239,172)"/>
<path d="M0 0 C0.99 0.33 1.98 0.66 3 1 C2 4 2 4 0 7 C-0.99 6.67 -1.98 6.34 -3 6 C-2 3 -2 3 0 0 Z " fill="#D3CDB2" transform="translate(313,209)"/>
<path d="M0 0 C1.32 0.66 2.64 1.32 4 2 C2.82421875 3.51953125 2.82421875 3.51953125 1 5 C-1.48046875 5.07421875 -1.48046875 5.07421875 -4.1875 4.6875 C-5.08855469 4.56761719 -5.98960937 4.44773438 -6.91796875 4.32421875 C-7.60503906 4.21722656 -8.29210937 4.11023438 -9 4 C-9 3.67 -9 3.34 -9 3 C-5.92382812 2.70703125 -5.92382812 2.70703125 -2.84765625 2.4140625 C-2.23792969 2.27742187 -1.62820313 2.14078125 -1 2 C-0.67 1.34 -0.34 0.68 0 0 Z " fill="#3D3829" transform="translate(311,201)"/>
<path d="M0 0 C0.99 0 1.98 0 3 0 C3 1.98 3 3.96 3 6 C1.68 6 0.36 6 -1 6 C-0.67 4.02 -0.34 2.04 0 0 Z " fill="#CBC6B2" transform="translate(219,177)"/>
<path d="M0 0 C1.65 1.65 3.3 3.3 5 5 C4.67 5.66 4.34 6.32 4 7 C1.525 6.01 1.525 6.01 -1 5 C-0.67 3.35 -0.34 1.7 0 0 Z " fill="#272417" transform="translate(277,176)"/>
<path d="M0 0 C0.99 0 1.98 0 3 0 C3.1875 2.875 3.1875 2.875 3 6 C2.01 6.66 1.02 7.32 0 8 C0 5.36 0 2.72 0 0 Z " fill="#140F06" transform="translate(224,173)"/>
<path d="M0 0 C0.66 0.33 1.32 0.66 2 1 C2.33 0.67 2.66 0.34 3 0 C3.66 0 4.32 0 5 0 C5 1.32 5 2.64 5 4 C3.02 4 1.04 4 -1 4 C-0.67 2.68 -0.34 1.36 0 0 Z " fill="#CAC8AF" transform="translate(283,211)"/>
<path d="M0 0 C0.99 0.33 1.98 0.66 3 1 C2.67 2.32 2.34 3.64 2 5 C1.67 4.67 1.34 4.34 1 4 C0.34 4.99 -0.32 5.98 -1 7 C-1.625 5.1875 -1.625 5.1875 -2 3 C-1.34 2.01 -0.68 1.02 0 0 Z " fill="#B8B19E" transform="translate(251,193)"/>
<path d="M0 0 C0.99 0.33 1.98 0.66 3 1 C1.95125002 3.62187494 1.35068687 4.79371361 -1.125 6.25 C-1.74375 6.4975 -2.3625 6.745 -3 7 C-3.33 6.34 -3.66 5.68 -4 5 C-3.34 5 -2.68 5 -2 5 C-2 4.34 -2 3.68 -2 3 C-1.34 3 -0.68 3 0 3 C0 2.01 0 1.02 0 0 Z " fill="#BD9A3E" transform="translate(145,194)"/>
<path d="M0 0 C1.65 0 3.3 0 5 0 C4.67 1.65 4.34 3.3 4 5 C3.34 5 2.68 5 2 5 C1.67 5.66 1.34 6.32 1 7 C0.67 4.69 0.34 2.38 0 0 Z " fill="#25190B" transform="translate(155,177)"/>
<path d="M0 0 C2.97 0.495 2.97 0.495 6 1 C5.67 1.99 5.34 2.98 5 4 C6.65 4 8.3 4 10 4 C10 4.33 10 4.66 10 5 C4.25 5.125 4.25 5.125 2 4 C2 3.01 2 2.02 2 1 C1.34 0.67 0.68 0.34 0 0 Z " fill="#B7B09D" transform="translate(236,165)"/>
<path d="M0 0 C-0.33 1.32 -0.66 2.64 -1 4 C-3.97 3.505 -3.97 3.505 -7 3 C-3.375 0 -3.375 0 0 0 Z " fill="#D0CAB2" transform="translate(310,229)"/>
<path d="M0 0 C0.66 0.33 1.32 0.66 2 1 C1.34 2.65 0.68 4.3 0 6 C-1.32 6 -2.64 6 -4 6 C-3.67 5.01 -3.34 4.02 -3 3 C-2.34 2.67 -1.68 2.34 -1 2 C-0.67 1.34 -0.34 0.68 0 0 Z " fill="#303021" transform="translate(292,209)"/>
<path d="M0 0 C2 0.3125 2 0.3125 4 1 C4.33 1.66 4.66 2.32 5 3 C4.0625 5.125 4.0625 5.125 3 7 C2.71125 6.38125 2.4225 5.7625 2.125 5.125 C1.06279958 2.86674235 1.06279958 2.86674235 -1 1 C-0.67 0.67 -0.34 0.34 0 0 Z " fill="#2C251A" transform="translate(313,205)"/>
<path d="M0 0 C2.97 0 5.94 0 9 0 C9 0.66 9 1.32 9 2 C10.32 2.33 11.64 2.66 13 3 C8.18061476 3.23509196 4.53701494 2.45184478 0 1 C0 0.67 0 0.34 0 0 Z " fill="#342F22" transform="translate(229,162)"/>
<path d="M0 0 C2.475 0.495 2.475 0.495 5 1 C5 1.66 5 2.32 5 3 C5.66 3.33 6.32 3.66 7 4 C4.69 4 2.38 4 0 4 C0 2.68 0 1.36 0 0 Z " fill="#BEB9A7" transform="translate(229,158)"/>
<path d="M0 0 C0 0.99 0 1.98 0 3 C-2.875 3.125 -2.875 3.125 -6 3 C-6.66 2.34 -7.32 1.68 -8 1 C-5.23735711 0.40267181 -2.83967231 0 0 0 Z " fill="#322303" transform="translate(98,232)"/>
<path d="M0 0 C0.99 0 1.98 0 3 0 C3.66 2.31 4.32 4.62 5 7 C2 6 2 6 0 3 C0 2.01 0 1.02 0 0 Z " fill="#C99C24" transform="translate(114,224)"/>
<path d="M0 0 C2.31 0 4.62 0 7 0 C5.35 1.98 3.7 3.96 2 6 C1.855625 5.38125 1.71125 4.7625 1.5625 4.125 C1.06847775 1.96741678 1.06847775 1.96741678 0 0 Z " fill="#2D1B08" transform="translate(87,213)"/>
<path d="M0 0 C0.99 0.33 1.98 0.66 3 1 C2.34 2.32 1.68 3.64 1 5 C-1.97 4.505 -1.97 4.505 -5 4 C-2.6875 1.9375 -2.6875 1.9375 0 0 Z " fill="#B9B59C" transform="translate(308,207)"/>
</svg>
